<svg xmlns="http://www.w3.org/2000/svg" width="1200" height="630" viewBox="0 0 1200 630" role="img" aria-labelledby="title desc">
  <title id="title">EV3 Maze Simulator preview image</title>
  <desc id="desc">Preview card for a browser-based EV3 maze line tracer simulator.</desc>
  <defs>
    <linearGradient id="page" x1="0" x2="1" y1="0" y2="1">
      <stop offset="0" stop-color="#15191f"/>
      <stop offset=".55" stop-color="#101216"/>
      <stop offset="1" stop-color="#0f1115"/>
    </linearGradient>
    <filter id="softShadow" x="-20%" y="-20%" width="140%" height="140%">
      <feDropShadow dx="0" dy="18" stdDeviation="24" flood-color="#000000" flood-opacity=".36"/>
    </filter>
  </defs>
  <rect width="1200" height="630" fill="url(#page)"/>
  <rect x="70" y="64" width="1060" height="502" rx="28" fill="#1b2028" stroke="#374150" stroke-width="2"/>
  <g transform="translate(105 98)">
    <text x="0" y="0" fill="#edf2f7" font-family="Inter, Arial, sans-serif" font-size="54" font-weight="900" letter-spacing="0" dominant-baseline="hanging">EV3 Maze Simulator</text>
    <text x="630" y="8" fill="#f6a623" font-family="Inter, Arial, sans-serif" font-size="40" font-weight="900" letter-spacing="0" dominant-baseline="hanging">ver5</text>
    <text x="0" y="78" fill="#9aa5b5" font-family="Inter, Arial, sans-serif" font-size="25" font-weight="700" letter-spacing="0">EV3 미로 라인트레이서 알고리즘을 브라우저에서 확인</text>
    <text x="0" y="124" fill="#00a39c" font-family="Inter, Arial, sans-serif" font-size="22" font-weight="800" letter-spacing="0">https://ev3sim.vercel.app/</text>
  </g>
  <g transform="translate(106 274)" filter="url(#softShadow)">
    <rect x="0" y="0" width="430" height="250" rx="18" fill="#f5f4ee"/>
    <path d="M46 201V132h107V40h128v92h103v62H244v-62" fill="none" stroke="#151515" stroke-width="18" stroke-linecap="round" stroke-linejoin="round"/>
    <path d="M46 201V132h107" fill="none" stroke="#f6a623" stroke-width="6" stroke-linecap="round" stroke-linejoin="round"/>
    <circle cx="46" cy="201" r="20" fill="#2563eb"/>
    <circle cx="153" cy="132" r="20" fill="#2563eb"/>
    <circle cx="281" cy="40" r="20" fill="#64b63f"/>
    <circle cx="384" cy="194" r="20" fill="#2563eb"/>
    <text x="38" y="208" fill="#fff" font-family="Inter, Arial, sans-serif" font-size="17" font-weight="900">1</text>
    <text x="145" y="139" fill="#fff" font-family="Inter, Arial, sans-serif" font-size="17" font-weight="900">6</text>
    <text x="273" y="47" fill="#fff" font-family="Inter, Arial, sans-serif" font-size="17" font-weight="900">7</text>
    <rect x="278" y="179" width="54" height="40" rx="10" fill="#252c36" stroke="#f6a623" stroke-width="6"/>
    <circle cx="278" cy="199" r="8" fill="#9aa5b5"/>
    <circle cx="332" cy="199" r="8" fill="#9aa5b5"/>
    <path d="M305 179v-25" stroke="#00a39c" stroke-width="7" stroke-linecap="round"/>
  </g>
  <g transform="translate(590 254)">
    <rect x="0" y="0" width="470" height="70" rx="12" fill="#fbfbf9"/>
    <rect x="22" y="21" width="68" height="36" rx="8" fill="#4e9f3d"/>
    <rect x="106" y="21" width="150" height="36" rx="8" fill="#00a39c"/>
    <rect x="272" y="21" width="74" height="36" rx="8" fill="#f2c200"/>
    <rect x="362" y="21" width="86" height="36" rx="8" fill="#f6a623"/>
    <text x="36" y="45" fill="#fff" font-family="Inter, Arial, sans-serif" font-size="14" font-weight="900">Start</text>
    <text x="124" y="45" fill="#fff" font-family="Inter, Arial, sans-serif" font-size="14" font-weight="900">Follow_Until_Event</text>
    <text x="287" y="45" fill="#20262f" font-family="Inter, Arial, sans-serif" font-size="14" font-weight="900">Peek</text>
    <text x="379" y="45" fill="#fff" font-family="Inter, Arial, sans-serif" font-size="14" font-weight="900">Turn</text>
  </g>
  <g transform="translate(590 355)">
    <rect x="0" y="0" width="470" height="70" rx="12" fill="#15191f" stroke="#374150"/>
    <text x="22" y="28" fill="#9aa5b5" font-family="Inter, Arial, sans-serif" font-size="17" font-weight="800">지금 알고리즘이 하는 일</text>
    <text x="22" y="53" fill="#edf2f7" font-family="Inter, Arial, sans-serif" font-size="22" font-weight="900">센서를 읽고, 갈림길마다 판단하며 회전 기록</text>
  </g>
  <g transform="translate(590 450)">
    <rect x="0" y="0" width="102" height="38" rx="19" fill="#f6a623" fill-opacity=".15" stroke="#f6a623"/>
    <rect x="118" y="0" width="96" height="38" rx="19" fill="#1b2028" stroke="#374150"/>
    <rect x="230" y="0" width="116" height="38" rx="19" fill="#00a39c" fill-opacity=".15" stroke="#00a39c"/>
    <text x="27" y="25" fill="#f6a623" font-family="Inter, Arial, sans-serif" font-size="14" font-weight="900">EXPLORE</text>
    <text x="140" y="25" fill="#9aa5b5" font-family="Inter, Arial, sans-serif" font-size="14" font-weight="900">RETURN</text>
    <text x="253" y="25" fill="#00a39c" font-family="Inter, Arial, sans-serif" font-size="14" font-weight="900">SPEC PATH</text>
  </g>
</svg>
